<svg width="160" height="80" viewBox="0 0 160 80" fill="none" xmlns="http://www.w3.org/2000/svg">
<path fill-rule="evenodd" clip-rule="evenodd" d="M20 10H100V30H130V10H150V70H130V60H100V70H20V50H10V30H20V10Z" fill="#009954"/>
<rect y="30" width="10" height="20" fill="black"/>
<rect y="30" width="10" height="20" fill="black"/>
<rect y="30" width="10" height="20" fill="black"/>
<rect x="10" y="20" width="10" height="10" fill="black"/>
<rect x="30" y="30" width="10" height="10" fill="black"/>
<rect x="60" y="50" width="10" height="10" fill="black"/>
<rect x="70" y="30" width="10" height="20" fill="black"/>
<rect x="10" y="50" width="10" height="10" fill="black"/>
<rect x="20" y="60" width="20" height="10" fill="black"/>
<rect x="90" y="10" width="10" height="10" fill="black"/>
<rect x="90" y="10" width="10" height="10" fill="black"/>
<rect x="100" y="20" width="10" height="10" fill="black"/>
<rect x="150" y="50" width="10" height="20" fill="black"/>
<rect x="140" y="40" width="10" height="10" fill="black"/>
<rect x="150" y="20" width="10" height="20" fill="black"/>
<rect x="130" y="10" width="20" height="10" fill="black"/>
<rect x="130" y="70" width="20" height="10" fill="black"/>
<rect x="120" y="20" width="10" height="10" fill="black"/>
<rect x="40" y="70" width="60" height="10" fill="black"/>
<rect x="100" y="60" width="10" height="10" fill="black"/>
<rect x="110" y="50" width="10" height="10" fill="black"/>
<rect x="120" y="60" width="10" height="10" fill="black"/>
<rect x="110" y="30" width="10" height="10" fill="black"/>
<rect x="20" y="10" width="20" height="10" fill="black"/>
<rect x="40" width="50" height="10" fill="black"/>
</svg>